<?xml version="1.0" encoding="UTF-8" standalone="no"?>
<!-- Created with Inkscape (http://www.inkscape.org/) -->

<svg
   xmlns:dc="http://purl.org/dc/elements/1.1/"
   xmlns:cc="http://creativecommons.org/ns#"
   xmlns:rdf="http://www.w3.org/1999/02/22-rdf-syntax-ns#"
   xmlns:svg="http://www.w3.org/2000/svg"
   xmlns="http://www.w3.org/2000/svg"
   xmlns:sodipodi="http://sodipodi.sourceforge.net/DTD/sodipodi-0.dtd"
   xmlns:inkscape="http://www.inkscape.org/namespaces/inkscape"
   width="4667.2207"
   height="1379.7319"
   id="svg3063"
   version="1.1"
   inkscape:version="0.91 r13725"
   sodipodi:docname="Physagorian_Pythagoras_Greedy_Tantalus_cup_05.svg">
  <defs
     id="defs3065">
    <marker
       inkscape:stockid="Arrow2Mend"
       orient="auto"
       refY="0"
       refX="0"
       id="Arrow2Mend"
       style="overflow:visible">
      <path
         id="path4014"
         style="font-size:12px;fill-rule:evenodd;stroke-width:0.625;stroke-linejoin:round"
         d="M 8.7185878,4.0337352 -2.2072895,0.01601326 8.7185884,-4.0017078 c -1.7454984,2.3720609 -1.7354408,5.6174519 -6e-7,8.035443 z"
         transform="scale(-0.6,-0.6)"
         inkscape:connector-curvature="0" />
    </marker>
    <marker
       inkscape:stockid="Arrow2Send"
       orient="auto"
       refY="0"
       refX="0"
       id="Arrow2Send"
       style="overflow:visible">
      <path
         id="path4020"
         style="font-size:12px;fill-rule:evenodd;stroke-width:0.625;stroke-linejoin:round"
         d="M 8.7185878,4.0337352 -2.2072895,0.01601326 8.7185884,-4.0017078 c -1.7454984,2.3720609 -1.7354408,5.6174519 -6e-7,8.035443 z"
         transform="matrix(-0.3,0,0,-0.3,0.69,0)"
         inkscape:connector-curvature="0" />
    </marker>
  </defs>
  <sodipodi:namedview
     id="base"
     pagecolor="#ffffff"
     bordercolor="#666666"
     borderopacity="1.0"
     inkscape:pageopacity="0.0"
     inkscape:pageshadow="2"
     inkscape:zoom="0.15198299"
     inkscape:cx="2234.9219"
     inkscape:cy="795.58558"
     inkscape:document-units="px"
     inkscape:current-layer="layer1"
     showgrid="false"
     inkscape:snap-nodes="true"
     inkscape:window-width="1366"
     inkscape:window-height="705"
     inkscape:window-x="-8"
     inkscape:window-y="-8"
     inkscape:window-maximized="1"
     fit-margin-top="0"
     fit-margin-left="0"
     fit-margin-right="0"
     fit-margin-bottom="0" />
  <metadata
     id="metadata3068">
    <rdf:RDF>
      <cc:Work
         rdf:about="">
        <dc:format>image/svg+xml</dc:format>
        <dc:type
           rdf:resource="http://purl.org/dc/dcmitype/StillImage" />
        <dc:title></dc:title>
      </cc:Work>
    </rdf:RDF>
  </metadata>
  <g
     inkscape:label="Layer 1"
     inkscape:groupmode="layer"
     id="layer1"
     transform="translate(1012.7282,-82.90032)">
    <g
       id="g4796"
       transform="matrix(0.7192121,0,0,1.8643234,687.40004,-764.10193)"
       style="fill:#f4d7d7">
      <path
         style="color:#000000;font-style:normal;font-variant:normal;font-weight:normal;font-stretch:normal;font-size:medium;line-height:normal;font-family:Sans;-inkscape-font-specification:Sans;text-indent:0;text-align:start;text-decoration:none;text-decoration-line:none;letter-spacing:normal;word-spacing:normal;text-transform:none;direction:ltr;block-progression:tb;writing-mode:lr-tb;baseline-shift:baseline;text-anchor:start;display:inline;overflow:visible;visibility:visible;fill:#f4d7d7;fill-opacity:1;stroke:none;stroke-width:30;marker:none;enable-background:accumulate"
         d="m 2377.8125,918.81255 0,30 394.7812,0 0,-30 -394.7812,0 z"
         id="path3982"
         inkscape:connector-curvature="0" />
      <path
         d="m 2615.6584,861.20872 196.6658,72.31899 -196.6658,72.31899 c 31.419,-42.69711 31.2379,-101.11414 0,-144.63798 z"
         style="font-size:12px;fill:#f4d7d7;fill-rule:evenodd;stroke-width:0.625;stroke-linejoin:round"
         id="path4802"
         inkscape:connector-curvature="0" />
    </g>
    <g
       id="g4882">
      <g
         transform="translate(-1.0449219e-5,0)"
         id="g4832">
        <path
           style="color:#000000;display:inline;overflow:visible;visibility:visible;fill:#996633;fill-opacity:1;stroke:none;stroke-width:1px;marker:none;enable-background:accumulate"
           d="m -119.47819,82.90032 c -18.51833,14.07293 -45.02817,34.79038 -55.75,49.6875 -16.49668,22.92081 -38.9565,90.45303 -41.4375,139.03125 -4.96201,97.15644 12.71678,199.84968 -13.84375,279.53125 -13.56391,40.69172 -36.89977,50.62639 -77.3125,64.125 -36.79065,12.28877 -85.86982,21.60319 -127.375,56.15625 l -0.21875,0 0,0.125 -23.71875,-0.0312 c -22.56557,-0.024 -41.134,-18.47366 -41.125,-40.9375 l -0.21875,-327.125 c -0.0192,-0.98689 -0.90909,-3.19585 -3.6875,-5.375 -2.77841,-2.17915 -6.97193,-3.59375 -9.53125,-3.59375 -2.55931,0 -8.44738,1.6659 -12.3125,4.21875 -3.83423,2.53245 -4.6743,4.95304 -4.6875,4.75 l 0,0.0312 0,0.25 0.0312,932.03123 386.90625,0.094 0,-35.8125 c -177.37767,-20.7547 -304.97823,83.381 -300.03125,-240.03133 0.66249,-43.31089 -6.9977,-221.56475 22.84375,-251.4062 67.89944,-67.89944 189.92363,-38.33339 225.71875,-145.71875 61.56643,-184.69927 -78.7026,-426.95319 177.156252,-480 l -101.406252,0 z m -893.25001,0.09375 c 255.79794,52.95664 115.52733,295.20698 177.09376,479.90625 35.79512,107.38536 157.81931,77.81931 225.71875,145.71875 29.84145,29.84145 22.18126,208.09534 22.84375,251.4062 4.94698,323.41233 -122.1381,219.32623 -299.5,240.09383 l 0,35.5938 330.90625,0.062 -0.0312,-932.28123 0,-0.28125 0,-0.0312 0,-0.25 0.0625,0 c 0.25123,-11.80531 8.05491,-19.94935 15.84375,-25.09375 7.91634,-5.22861 16.77894,-8.34375 26.09375,-8.34375 9.31481,0 17.87803,3.36938 24.9375,8.90625 7.05947,5.53687 13.07477,13.93703 13.28125,24.5625 l 0,0.125 0,0.125 0.21875,327.34375 0,0.0312 c -0.003,8.89718 6.9717,15.9275 16.15625,15.9375 l 21.80323,0.0312 0,-336.42246 c -0.0357,-1.3188 0.0709,-2.72134 0.0717,-3.60879 0,-43.17146 -35.01603,-78.15625 -78.1875,-78.15625 -43.17146,0 -78.15625,34.98479 -78.15625,78.15625 0,1.31329 0.0297,2.64009 0.0937,3.9375 l -0.84375,0 0,360.96875 -1.34375,0 c -41.50518,-34.55306 -90.58434,-43.86748 -127.375,-56.15625 -40.41272,-13.49861 -63.74859,-23.43328 -77.3125,-64.125 -26.56052,-79.68155 -10.12872,-206.64276 -13.84375,-279.5 -3.71503,-72.85724 -24.91954,-116.12492 -41.40625,-139.03125 -10.72024,-14.8945 -37.2686,-35.5719 -55.78125,-49.625 l -101.34369,0 z"
           id="path3073"
           inkscape:connector-curvature="0"
           sodipodi:nodetypes="cssssccccccsssccccccsssccccsssccccccccssscccccccccssccccssssccc" />
        <g
           style="font-style:normal;font-weight:normal;font-size:200px;line-height:125%;font-family:Sans;letter-spacing:0px;word-spacing:0px;fill:#000000;fill-opacity:1;stroke:none"
           id="text4804"
           transform="translate(27.265191,0)">
          <path
             d="m -609.65747,1460.1908 54.98047,-143.1641 20.41015,0 58.59375,143.1641 -21.58203,0 -16.69922,-43.3594 -59.86328,0 -15.72265,43.3594 z m 41.30859,-58.7891 48.53516,0 -14.94141,-39.6484 c -4.55736,-12.0442 -7.94277,-21.94 -10.15625,-29.6875 -1.82298,9.1798 -4.39459,18.2944 -7.71484,27.3437 z"
             id="path4830"
             inkscape:connector-curvature="0" />
        </g>
      </g>
      <g
         transform="translate(17.523729,0)"
         id="g4842">
        <g
           id="g4837">
          <path
             sodipodi:nodetypes="csssscccsccccscccsscsc"
             inkscape:connector-curvature="0"
             id="path3916"
             d="m 374.5072,359.30208 c 1.7728,34.76596 10.731,15.64687 10.4037,67.05243 -0.3274,51.40556 1.8868,104.25436 16.2812,147.4375 7.5255,22.57654 19.1121,38.90063 34.2812,50.0625 15.1692,11.16187 32.6787,17.29556 53.125,24.125 38.534,12.87108 84.3768,21.80906 122.2188,53.3125 2.8319,2.3578 6.5025,3.68644 10.1875,3.6875 l 1.3437,0 c 4.1731,0.002 8.3213,-1.71467 11.2721,-4.66546 2.9508,-2.95078 4.6677,-7.09899 4.6655,-11.27204 l 0,-329.9375 m 125.9696,0.0312 0,319.90625 c 0,4.17304 1.7147,8.32123 4.6655,11.27201 2.9508,2.95078 7.099,4.66772 11.272,4.66549 l 1.2812,0 c 3.685,-10e-4 7.3557,-1.32968 10.1876,-3.6875 37.8421,-31.50347 83.68472,-40.44143 122.2187,-53.3125 20.44626,-6.82944 37.95583,-12.96313 53.125,-24.125 15.16917,-11.16187 26.75573,-17.48595 34.2812,-40.0625 18.4473,-63.55812 17.0004,-124.47062 15.3409,-183.91233 -1.6595,-59.44171 -3.5316,26.58735 14.0654,-31.08767"
             style="color:#000000;display:inline;overflow:visible;visibility:visible;fill:#880022;fill-opacity:1;stroke:none;stroke-width:1px;marker:none;enable-background:accumulate" />
          <rect
             y="358.88498"
             x="691.40448"
             height="326.64621"
             width="91.88353"
             id="rect3924"
             style="fill:#880022;fill-opacity:1;fill-rule:nonzero;stroke:none" />
          <path
             sodipodi:nodetypes="cssssccccccsssccccccsssccccsssccccccccssscccccccccssccccssssccc"
             inkscape:connector-curvature="0"
             id="path3918"
             d="m 1087.1864,82.90032 c -18.5183,14.07293 -45.0281,34.79038 -55.75,49.6875 -16.4967,22.92081 -38.95648,90.45303 -41.43748,139.03125 -4.96201,97.15644 12.71678,199.84968 -13.84375,279.53125 -13.56391,40.69172 -36.89977,50.62639 -77.3125,64.125 -36.79065,12.28877 -85.86982,21.60319 -127.375,56.15625 l -0.21875,0 0,0.125 -23.71875,-0.0312 c -22.56557,-0.024 -41.134,-18.47366 -41.125,-40.9375 l -0.21875,-327.125 c -0.0192,-0.98689 -0.90909,-3.19585 -3.6875,-5.375 -2.77841,-2.17915 -6.97193,-3.59375 -9.53125,-3.59375 -2.55931,0 -8.44738,1.6659 -12.3125,4.21875 -3.83423,2.53245 -4.6743,4.95304 -4.6875,4.75 l 0,0.0312 0,0.25 0.0312,932.03123 386.90623,0.094 0,-35.8125 c -177.37765,-20.7547 -304.97821,83.381 -300.03123,-240.03133 0.66249,-43.31089 -6.9977,-221.56475 22.84375,-251.4062 67.89944,-67.89944 189.92363,-38.33339 225.71878,-145.71875 61.5664,-184.69927 -78.70263,-426.95319 177.1562,-480 l -101.4062,0 z m -893.25,0.09375 c 255.79795,52.95664 115.52734,295.20698 177.09377,479.90625 35.79512,107.38536 157.81931,77.81931 225.71875,145.71875 29.84145,29.84145 22.18126,208.09534 22.84375,251.4062 4.94698,323.41233 -122.1381,219.32623 -299.5,240.09383 l 0,35.5938 330.90625,0.062 -0.0312,-932.28123 0,-0.28125 0,-0.0312 0,-0.25 0.0625,0 c 0.25123,-11.80531 8.05491,-19.94935 15.84375,-25.09375 7.91634,-5.22861 16.77894,-8.34375 26.09375,-8.34375 9.31481,0 17.87803,3.36938 24.9375,8.90625 7.05947,5.53687 13.07477,13.93703 13.28125,24.5625 l 0,0.125 0,0.125 0.21875,327.34375 0,0.0312 c -0.003,8.89718 6.9717,15.9275 16.15625,15.9375 l 21.80323,0.0312 0,-336.42246 c -0.0357,-1.3188 0.0709,-2.72134 0.0717,-3.60879 0,-43.17146 -35.01603,-78.15625 -78.1875,-78.15625 -43.17146,0 -78.15625,34.98479 -78.15625,78.15625 0,1.31329 0.0297,2.64009 0.0937,3.9375 l -0.84375,0 0,360.96875 -1.34375,0 c -41.50518,-34.55306 -90.58434,-43.86748 -127.375,-56.15625 -40.41272,-13.49861 -63.74859,-23.43328 -77.3125,-64.125 -26.56052,-79.68155 -10.12872,-206.64276 -13.84375,-279.5 -3.71503,-72.85724 -24.91954,-116.12492 -41.40625,-139.03125 -10.72024,-14.8945 -37.2686,-35.5719 -55.78125,-49.625 l -101.3437,0 z"
             style="color:#000000;display:inline;overflow:visible;visibility:visible;fill:#996633;fill-opacity:1;stroke:none;stroke-width:1px;marker:none;enable-background:accumulate" />
        </g>
        <g
           style="font-style:normal;font-weight:normal;font-size:200px;line-height:125%;font-family:Sans;letter-spacing:0px;word-spacing:0px;fill:#000000;fill-opacity:1;stroke:none"
           id="text4808"
           transform="translate(21.266025,0)">
          <path
             d="m 615.94574,1460.1908 0,-143.1641 53.71094,0 c 10.93742,2e-4 19.7102,1.4487 26.31836,4.3457 6.60797,2.8973 11.78374,7.3569 15.52734,13.3789 3.74338,6.0223 5.61512,12.3211 5.61523,18.8965 -1.1e-4,6.1199 -1.66027,11.8816 -4.98046,17.2852 -3.32042,5.4037 -8.33344,9.7657 -15.03907,13.0859 8.65875,2.5392 15.31565,6.8686 19.97071,12.9883 4.65482,6.1199 6.9823,13.3464 6.98242,21.6797 -1.2e-4,6.7058 -1.41614,12.9395 -4.24805,18.7012 -2.83215,5.7617 -6.33149,10.2051 -10.49805,13.33 -4.16677,3.125 -9.39137,5.4851 -15.67382,7.0801 -6.28264,1.5951 -13.9812,2.3926 -23.09571,2.3926 z m 18.94531,-83.0078 30.95703,0 c 8.39837,10e-5 14.4205,-0.5533 18.06641,-1.6602 4.81762,-1.4322 8.44717,-3.8085 10.88867,-7.1289 2.44131,-3.3202 3.66201,-7.4869 3.66211,-12.5 -1e-4,-4.7525 -1.13942,-8.9354 -3.41797,-12.5488 -2.27874,-3.6132 -5.53394,-6.0871 -9.76562,-7.4219 -4.23185,-1.3345 -11.49096,-2.0018 -21.77735,-2.0019 l -28.61328,0 z m 0,66.1133 35.64453,0 c 6.11972,0 10.41659,-0.2279 12.89063,-0.6836 4.36189,-0.7813 8.00772,-2.0833 10.9375,-3.9063 2.92959,-1.8229 5.33844,-4.4759 7.22656,-7.959 1.88792,-3.483 2.83193,-7.5032 2.83203,-12.0605 -10e-5,-5.3385 -1.36729,-9.9772 -4.10156,-13.916 -2.73447,-3.9388 -6.52679,-6.7057 -11.37695,-8.3008 -4.85035,-1.595 -11.83276,-2.3925 -20.94727,-2.3926 l -33.10547,0 z"
             id="path4827"
             inkscape:connector-curvature="0" />
        </g>
      </g>
      <g
         transform="translate(35.047261,0)"
         id="g4870">
        <g
           id="g3941">
          <rect
             y="633.60541"
             x="1940.1149"
             height="43.954132"
             width="42.250481"
             id="rect3928"
             style="fill:#880022;fill-opacity:1;fill-rule:nonzero;stroke:none" />
          <rect
             y="263.02634"
             x="1844.2775"
             height="972.6413"
             width="112.22784"
             id="rect3926"
             style="fill:#880022;fill-opacity:1;fill-rule:nonzero;stroke:none" />
          <path
             style="color:#000000;display:inline;overflow:visible;visibility:visible;fill:#880022;fill-opacity:1;stroke:none;stroke-width:1px;marker:none;enable-background:accumulate"
             d="m 1581.1719,215.30208 c 1.7728,34.76596 10.731,159.64687 10.4037,211.05243 -0.3274,51.40556 1.8868,104.25436 16.2812,147.4375 7.5255,22.57654 19.1121,38.90063 34.2812,50.0625 15.1692,11.16187 32.6787,17.29556 53.125,24.125 38.534,12.87108 84.3768,21.80906 122.2188,53.3125 2.8319,2.3578 6.5025,3.68644 10.1875,3.6875 l 1.3437,0 c 4.1731,0.002 8.3213,-1.71467 11.2721,-4.66546 2.9508,-2.95078 4.6677,-7.09899 4.6655,-11.27204 l 0,-355.9375 c 0.6267,-1.8651 0.9037,-3.84705 0.8124,-5.8125 -0.05,-1.00671 -0.062,-2.0839 -0.062,-3.15625 0,-34.56672 27.652,-62.21875 62.2187,-62.21875 34.5668,0 62.25,27.65968 62.25,62.21875 0,1.07312 -0.013,2.15126 -0.062,3.15625 -0.095,1.97578 0.182,3.96886 0.8125,5.84375 l 0,355.90625 c 0,4.17304 1.7147,8.32123 4.6655,11.27201 2.9508,2.95078 7.099,4.66772 11.272,4.66549 l 1.2812,0 c 3.685,-10e-4 7.3557,-1.32968 10.1876,-3.6875 37.8421,-31.50347 83.6847,-40.44143 122.2187,-53.3125 20.4463,-6.82944 37.9558,-12.96313 53.125,-24.125 15.1692,-11.16187 26.7557,-27.48595 34.2813,-50.0625 18.4472,-63.55812 17.0003,-124.47062 15.3408,-183.91233 -1.6595,-59.44171 -3.5316,-117.41265 14.0654,-175.08767"
             id="path3910"
             inkscape:connector-curvature="0"
             sodipodi:nodetypes="csssscccscccssscccscccsscsc" />
          <path
             style="color:#000000;display:inline;overflow:visible;visibility:visible;fill:#996633;fill-opacity:1;stroke:none;stroke-width:1px;marker:none;enable-background:accumulate"
             d="m 2293.8511,82.90032 c -18.5183,14.07293 -45.0282,34.79038 -55.75,49.6875 -16.4967,22.92081 -38.9565,90.45303 -41.4375,139.03125 -4.962,97.15644 12.7168,199.84968 -13.8437,279.53125 -13.5639,40.69172 -36.8998,50.62639 -77.3125,64.125 -36.7907,12.28877 -85.8698,21.60319 -127.375,56.15625 l -0.2188,0 0,0.125 -23.7187,-0.0312 c -22.5656,-0.024 -41.134,-18.47366 -41.125,-40.9375 l -0.2188,-327.125 c -0.019,-0.98689 -0.9091,-3.19585 -3.6875,-5.375 -2.7784,-2.17915 -6.9719,-3.59375 -9.5312,-3.59375 -2.5593,0 -8.4474,1.6659 -12.3125,4.21875 -3.8343,2.53245 -4.6743,4.95304 -4.6875,4.75 l 0,0.0312 0,0.25 0.031,932.03123 386.9062,0.094 0,-35.8125 c -177.3777,-20.7547 -304.9782,83.381 -300.0312,-240.03133 0.6625,-43.31089 -6.9977,-221.56475 22.8437,-251.4062 67.8995,-67.89944 189.9237,-38.33339 225.7188,-145.71875 61.5664,-184.69927 -78.7026,-426.95319 177.1562,-480 l -101.4062,0 z m -893.25,0.09375 c 255.798,52.95664 115.5273,295.20698 177.0938,479.90625 35.7951,107.38536 157.8193,77.81931 225.7187,145.71875 29.8415,29.84145 22.1813,208.09534 22.8438,251.4062 4.947,323.41233 -122.1381,219.32623 -299.5,240.09383 l 0,35.5938 330.9062,0.062 -0.031,-932.28123 0,-0.28125 0,-0.0312 0,-0.25 0.062,0 c 0.2513,-11.80531 8.0549,-19.94935 15.8438,-25.09375 7.9163,-5.22861 16.7789,-8.34375 26.0937,-8.34375 9.3148,0 17.8781,3.36938 24.9375,8.90625 7.0595,5.53687 13.0748,13.93703 13.2813,24.5625 l 0,0.125 0,0.125 0.2187,327.34375 0,0.0312 c 0,8.89718 6.9717,15.9275 16.1563,15.9375 l 21.8032,0.0312 0,-336.42246 c -0.036,-1.3188 0.071,-2.72134 0.072,-3.60879 0,-43.17146 -35.016,-78.15625 -78.1875,-78.15625 -43.1715,0 -78.1562,34.98479 -78.1562,78.15625 0,1.31329 0.03,2.64009 0.094,3.9375 l -0.8438,0 0,360.96875 -1.3437,0 c -41.5052,-34.55306 -90.5844,-43.86748 -127.375,-56.15625 -40.4128,-13.49861 -63.7486,-23.43328 -77.3125,-64.125 -26.5606,-79.68155 -10.1288,-206.64276 -13.8438,-279.5 -3.715,-72.85724 -24.9195,-116.12492 -41.4062,-139.03125 -10.7203,-14.8945 -37.2686,-35.5719 -55.7813,-49.625 l -101.3437,0 z"
             id="path3912"
             inkscape:connector-curvature="0"
             sodipodi:nodetypes="cssssccccccsssccccccsssccccsssccccccccssscccccccccssccccssssccc" />
          <path
             sodipodi:nodetypes="ssscs"
             inkscape:connector-curvature="0"
             id="path3930"
             d="m 1882.5103,1273.6871 c 0,7.6487 -6.2005,13.8492 -13.8493,13.8492 -7.6487,0 -13.8492,-6.2005 -13.8492,-13.8492 0,-7.6487 13.8492,-30.8783 13.8492,-30.8783 0,0 13.8493,23.2296 13.8493,30.8783 z"
             style="fill:#880022;fill-opacity:1;fill-rule:nonzero;stroke:none" />
          <path
             style="fill:#880022;fill-opacity:1;fill-rule:nonzero;stroke:none"
             d="m 1882.5103,1327.7353 c 0,7.6487 -6.2005,13.8492 -13.8493,13.8492 -7.6487,0 -13.8492,-6.2005 -13.8492,-13.8492 0,-7.6487 13.8492,-30.8783 13.8492,-30.8783 0,0 13.8493,23.2296 13.8493,30.8783 z"
             id="path3933"
             inkscape:connector-curvature="0"
             sodipodi:nodetypes="ssscs" />
          <path
             sodipodi:nodetypes="ssscs"
             inkscape:connector-curvature="0"
             id="path3935"
             d="m 1882.5103,1381.7835 c 0,7.6487 -6.2005,13.8492 -13.8493,13.8492 -7.6487,0 -13.8492,-6.2005 -13.8492,-13.8492 0,-7.6487 13.8492,-30.8783 13.8492,-30.8783 0,0 13.8493,23.2296 13.8493,30.8783 z"
             style="fill:#880022;fill-opacity:1;fill-rule:nonzero;stroke:none" />
        </g>
        <g
           style="font-style:normal;font-weight:normal;font-size:200px;line-height:125%;font-family:Sans;letter-spacing:0px;word-spacing:0px;fill:#000000;fill-opacity:1;stroke:none"
           id="text4812">
          <path
             d="m 2021.6528,1409.9955 18.9453,4.7851 c -3.9714,15.56 -11.1166,27.4252 -21.4355,35.5957 -10.3191,8.1706 -22.933,12.2559 -37.8418,12.2559 -15.4297,0 -27.9786,-3.1413 -37.6465,-9.4238 -9.668,-6.2826 -17.0247,-15.3809 -22.0703,-27.2949 -5.0456,-11.9141 -7.5684,-24.707 -7.5684,-38.379 0,-14.9087 2.8483,-27.9133 8.545,-39.0136 5.6966,-11.1002 13.802,-19.5311 24.3164,-25.293 10.5142,-5.7616 22.0865,-8.6424 34.7168,-8.6426 14.3228,2e-4 26.3671,3.646 36.1328,10.9375 9.7655,7.2918 16.5689,17.5457 20.4101,30.7617 l -18.6523,4.3946 c -3.3204,-10.4166 -8.1381,-18.0012 -14.4531,-22.7539 -6.3152,-4.7525 -14.2579,-7.1288 -23.8282,-7.1289 -11.0026,10e-5 -20.1986,2.6368 -27.5878,7.9101 -7.3894,5.2736 -12.5815,12.3536 -15.5762,21.2403 -2.9948,8.8868 -4.4922,18.0502 -4.4922,27.4902 0,12.1745 1.7741,22.8028 5.3223,31.8848 3.5481,9.082 9.0657,15.8691 16.5527,20.3613 7.4869,4.4922 15.5924,6.7383 24.3164,6.7383 10.6119,0 19.5963,-3.0599 26.9531,-9.1797 7.3567,-6.1198 12.3372,-15.2018 14.9414,-27.2461 z"
             id="path4824"
             inkscape:connector-curvature="0" />
        </g>
      </g>
      <g
         transform="translate(-6.3720704e-6,0)"
         id="g4858">
        <g
           id="g3973">
          <rect
             style="fill:#880022;fill-opacity:1;fill-rule:nonzero;stroke:none"
             id="rect3952"
             width="42.250481"
             height="43.954132"
             x="3199.3503"
             y="633.60541" />
          <rect
             style="fill:#880022;fill-opacity:1;fill-rule:nonzero;stroke:none"
             id="rect3954"
             width="112.22784"
             height="972.6413"
             x="3103.5129"
             y="263.02634" />
          <path
             sodipodi:nodetypes="ccsscccscccssscccscccsscc"
             inkscape:connector-curvature="0"
             id="path3956"
             d="m 2860.5812,576.46314 c 17.3613,104.88336 -27.0912,-107.60572 6.5111,-2.67113 7.5255,22.57654 19.1121,38.90063 34.2812,50.0625 15.1692,11.16187 32.6787,17.29556 53.125,24.125 38.534,12.87108 84.3768,21.80906 122.2188,53.3125 2.8319,2.3578 6.5025,3.68644 10.1875,3.6875 l 1.3437,0 c 4.1731,0.002 8.3213,-1.71467 11.2721,-4.66546 2.9508,-2.95078 4.6677,-7.09899 4.6655,-11.27204 l 0,-355.9375 c 0.6267,-1.8651 0.9037,-3.84705 0.8124,-5.8125 -0.05,-1.00671 -0.062,-2.0839 -0.062,-3.15625 0,-34.56672 21.1095,294.67996 52.5155,294.67996 31.4061,0 71.9532,-329.23903 71.9532,-294.67996 0,1.07312 -0.013,2.15126 -0.062,3.15625 -0.095,1.97578 0.182,3.96886 0.8125,5.84375 l 0,355.90625 c 0,4.17304 1.7147,8.32123 4.6655,11.27201 2.9508,2.95078 7.099,4.66772 11.272,4.66549 l 1.2812,0 c 3.685,-10e-4 7.3557,-1.32968 10.1876,-3.6875 37.8421,-31.50347 83.6847,-40.44143 122.2187,-53.3125 20.4463,-6.82944 37.9558,-12.96313 53.125,-24.125 15.1692,-11.16187 26.7557,-27.48595 34.2813,-50.0625 34.5145,-120.3486 -39.2439,100.72032 -10.42,2.2077"
             style="color:#000000;display:inline;overflow:visible;visibility:visible;fill:#880022;fill-opacity:1;stroke:none;stroke-width:1px;marker:none;enable-background:accumulate" />
          <path
             sodipodi:nodetypes="cssssccccccsssccccccsssccccsssccccccccssscccccccccssccccssssccc"
             inkscape:connector-curvature="0"
             id="path3958"
             d="m 3553.0866,82.90032 c -18.5183,14.07293 -45.0282,34.79038 -55.75,49.6875 -16.4967,22.92081 -38.9565,90.45303 -41.4375,139.03125 -4.962,97.15644 12.7168,199.84968 -13.8437,279.53125 -13.5639,40.69172 -36.8998,50.62639 -77.3125,64.125 -36.7907,12.28877 -85.8698,21.60319 -127.375,56.15625 l -0.2188,0 0,0.125 -23.7187,-0.0312 c -22.5656,-0.024 -41.134,-18.47366 -41.125,-40.9375 l -0.2188,-327.125 c -0.019,-0.98689 -0.9091,-3.19585 -3.6875,-5.375 -2.7784,-2.17915 -6.9719,-3.59375 -9.5312,-3.59375 -2.5593,0 -8.4474,1.6659 -12.3125,4.21875 -3.8343,2.53245 -4.6743,4.95304 -4.6875,4.75 l 0,0.0312 0,0.25 0.031,932.03123 386.9062,0.094 0,-35.8125 c -177.3777,-20.7547 -304.9782,83.381 -300.0312,-240.03133 0.6625,-43.31089 -6.9977,-221.56475 22.8437,-251.4062 67.8995,-67.89944 189.9237,-38.33339 225.7188,-145.71875 61.5664,-184.69927 -78.7026,-426.95319 177.1562,-480 l -101.4062,0 z m -893.25,0.09375 c 255.798,52.95664 115.5273,295.20698 177.0938,479.90625 35.7951,107.38536 157.8193,77.81931 225.7187,145.71875 29.8415,29.84145 22.1813,208.09534 22.8438,251.4062 4.947,323.41233 -122.1381,219.32623 -299.5,240.09383 l 0,35.5938 330.9062,0.062 -0.031,-932.28123 0,-0.28125 0,-0.0312 0,-0.25 0.062,0 c 0.2513,-11.80531 8.0549,-19.94935 15.8438,-25.09375 7.9163,-5.22861 16.7789,-8.34375 26.0937,-8.34375 9.3148,0 17.8781,3.36938 24.9375,8.90625 7.0595,5.53687 13.0748,13.93703 13.2813,24.5625 l 0,0.125 0,0.125 0.2187,327.34375 0,0.0312 c 0,8.89718 6.9717,15.9275 16.1563,15.9375 l 21.8032,0.0312 0,-336.42246 c -0.036,-1.3188 0.071,-2.72134 0.072,-3.60879 0,-43.17146 -35.016,-78.15625 -78.1875,-78.15625 -43.1715,0 -78.1562,34.98479 -78.1562,78.15625 0,1.31329 0.03,2.64009 0.094,3.9375 l -0.8438,0 0,360.96875 -1.3437,0 c -41.5052,-34.55306 -90.5844,-43.86748 -127.375,-56.15625 -40.4128,-13.49861 -63.7486,-23.43328 -77.3125,-64.125 -26.5606,-79.68155 -10.1288,-206.64276 -13.8438,-279.5 -3.715,-72.85724 -24.9195,-116.12492 -41.4062,-139.03125 -10.7203,-14.8945 -37.2686,-35.5719 -55.7813,-49.625 l -101.3437,0 z"
             style="color:#000000;display:inline;overflow:visible;visibility:visible;fill:#996633;fill-opacity:1;stroke:none;stroke-width:1px;marker:none;enable-background:accumulate" />
          <path
             style="fill:#880022;fill-opacity:1;fill-rule:nonzero;stroke:none"
             d="m 3141.7458,1273.6871 c 0,7.6487 -6.2005,13.8492 -13.8493,13.8492 -7.6487,0 -13.8492,-6.2005 -13.8492,-13.8492 0,-7.6487 13.8492,-30.8783 13.8492,-30.8783 0,0 13.8493,23.2296 13.8493,30.8783 z"
             id="path3960"
             inkscape:connector-curvature="0"
             sodipodi:nodetypes="ssscs" />
          <path
             sodipodi:nodetypes="ssscs"
             inkscape:connector-curvature="0"
             id="path3962"
             d="m 3141.7458,1327.7353 c 0,7.6487 -6.2005,13.8492 -13.8493,13.8492 -7.6487,0 -13.8492,-6.2005 -13.8492,-13.8492 0,-7.6487 13.8492,-30.8783 13.8492,-30.8783 0,0 13.8493,23.2296 13.8493,30.8783 z"
             style="fill:#880022;fill-opacity:1;fill-rule:nonzero;stroke:none" />
          <path
             style="fill:#880022;fill-opacity:1;fill-rule:nonzero;stroke:none"
             d="m 3141.7458,1381.7835 c 0,7.6487 -6.2005,13.8492 -13.8493,13.8492 -7.6487,0 -13.8492,-6.2005 -13.8492,-13.8492 0,-7.6487 13.8492,-30.8783 13.8492,-30.8783 0,0 13.8493,23.2296 13.8493,30.8783 z"
             id="path3964"
             inkscape:connector-curvature="0"
             sodipodi:nodetypes="ssscs" />
        </g>
        <g
           style="font-style:normal;font-weight:normal;font-size:200px;line-height:125%;font-family:Sans;letter-spacing:0px;word-spacing:0px;fill:#000000;fill-opacity:1;stroke:none"
           id="text4816">
          <path
             d="m 3189.3833,1460.1908 0,-143.1641 49.3164,0 c 11.1327,2e-4 19.6288,0.6838 25.4883,2.0508 8.203,1.8882 15.2017,5.3061 20.9961,10.2539 7.5519,6.3804 13.1997,14.5346 16.9433,24.4629 3.7434,9.9285 5.6151,21.2729 5.6153,34.0332 -2e-4,10.8725 -1.2697,20.5079 -3.8086,28.9063 -2.5392,8.3984 -5.7944,15.3483 -9.7656,20.8496 -3.9715,5.5013 -8.3172,9.8307 -13.0372,12.9883 -4.7201,3.1575 -10.4167,5.5501 -17.0898,7.1777 -6.6733,1.6276 -14.3393,2.4414 -22.998,2.4414 z m 18.9453,-16.8945 30.5664,0 c 9.44,0 16.8456,-0.8789 22.2168,-2.6368 5.371,-1.7577 9.6516,-4.2317 12.8418,-7.4218 4.4921,-4.4922 7.9914,-10.5306 10.4981,-18.1153 2.5064,-7.5845 3.7596,-16.7805 3.7597,-27.5879 -1e-4,-14.9738 -2.4578,-26.481 -7.373,-34.5214 -4.9155,-8.0403 -10.8888,-13.4277 -17.9199,-16.1621 -5.0783,-1.953 -13.2488,-2.9296 -24.5118,-2.9297 l -30.0781,0 z"
             id="path4821"
             inkscape:connector-curvature="0" />
        </g>
      </g>
    </g>
  </g>
</svg>
